<?xml version="1.0" standalone="no"?>
<!DOCTYPE svg PUBLIC "-//W3C//DTD SVG 20010904//EN"
 "http://www.w3.org/TR/2001/REC-SVG-20010904/DTD/svg10.dtd">
<svg version="1.0" xmlns="http://www.w3.org/2000/svg"
 width="256.000000pt" height="256.000000pt" viewBox="0 0 256.000000 256.000000"
 preserveAspectRatio="xMidYMid meet">
<metadata>
Created by potrace 1.14, written by Peter Selinger 2001-2017
</metadata>
<g transform="translate(0.000000,256.000000) scale(0.100000,-0.100000)"
fill="#000000" stroke="none">
<path d="M1846 2545 c-20 -20 -12 -84 19 -152 88 -194 345 -232 489 -72 83 92
105 239 35 239 -24 0 -39 -22 -44 -65 -19 -146 -170 -230 -302 -168 -63 29
-122 112 -123 171 0 55 -41 80 -74 47z"/>
<path d="M1490 2333 c-259 -87 -281 -426 -37 -555 59 -31 182 -32 248 -1 107
49 172 149 172 268 1 121 -62 222 -170 272 -65 30 -152 36 -213 16z m175 -92
c194 -88 147 -379 -65 -404 -121 -14 -234 91 -233 216 2 147 164 249 298 188z"/>
<path d="M1462 2078 c-42 -42 34 -158 104 -158 62 0 72 72 12 88 -23 6 -34 16
-41 37 -15 44 -49 59 -75 33z"/>
<path d="M684 2209 c-30 -15 -44 -51 -44 -113 l0 -52 -55 2 c-70 2 -126 -10
-193 -43 -60 -29 -92 -64 -92 -101 0 -13 32 -80 71 -148 l71 -124 -36 -54
c-53 -81 -91 -158 -112 -229 l-18 -65 -68 -4 c-81 -6 -133 -36 -175 -100 -26
-39 -28 -49 -32 -171 -4 -151 7 -200 55 -250 54 -59 85 -69 209 -73 101 -3
112 -5 128 -26 102 -129 164 -187 270 -250 l62 -38 1 -102 c1 -132 8 -168 42
-206 74 -83 191 -81 261 5 27 32 30 33 68 25 101 -23 183 51 183 163 l0 45
150 -1 150 0 0 -50 c0 -76 39 -134 105 -156 31 -10 40 -10 93 2 25 5 33 2 41
-14 37 -68 148 -98 222 -60 75 38 94 90 94 259 l0 114 71 48 c153 102 268 264
326 455 23 78 33 270 18 343 -5 25 -12 55 -14 68 -18 84 -82 212 -151 302 -88
114 -227 214 -361 260 -79 28 -100 24 -109 -18 -5 -27 7 -35 80 -63 248 -91
411 -285 471 -560 17 -79 -4 -312 -33 -362 -3 -4 -20 6 -40 23 -19 17 -48 33
-63 37 -27 5 -29 9 -28 48 1 83 -49 135 -131 135 -60 0 -111 -48 -118 -113 -3
-26 -9 -47 -14 -47 -12 0 -69 60 -70 73 -3 56 -21 87 -49 87 -30 0 -43 -26
-37 -76 6 -60 50 -122 107 -154 39 -21 59 -25 155 -27 61 -1 123 -2 138 -2 33
-1 97 -58 97 -86 0 -48 -138 -198 -248 -269 -38 -25 -72 -53 -76 -62 -3 -8 -6
-74 -6 -144 0 -72 -5 -140 -11 -153 -17 -37 -58 -56 -96 -45 -58 15 -64 37
-65 220 -1 90 -5 171 -10 181 -12 23 -55 22 -68 -2 -5 -11 -10 -38 -10 -60 0
-25 -5 -42 -12 -42 -7 -1 -169 -2 -360 -3 -342 -1 -348 -1 -349 19 -1 11 -1
27 0 36 3 34 -18 69 -42 69 -44 0 -47 -14 -47 -193 0 -101 -4 -176 -11 -188
-16 -31 -66 -49 -101 -37 -47 17 -58 52 -58 191 0 121 -1 125 -26 151 -15 14
-31 26 -35 26 -5 0 -31 14 -59 31 l-50 31 47 31 c26 18 62 51 80 74 36 49 53
124 33 148 -27 33 -71 8 -78 -44 -4 -37 -50 -90 -104 -120 l-46 -26 -23 20
c-12 11 -42 47 -66 80 -25 33 -52 64 -61 70 -10 5 -71 12 -137 15 -99 4 -125
9 -147 25 -26 19 -43 44 -35 51 2 2 22 6 45 8 52 5 62 12 62 40 0 33 -18 44
-75 48 l-50 3 1 76 c2 127 41 169 161 174 80 3 95 16 123 108 40 133 118 257
212 342 l53 48 3 -44 c2 -24 8 -49 14 -56 15 -19 51 -16 64 5 6 11 10 111 10
275 l-1 257 25 1 c105 5 201 -41 261 -124 36 -50 50 -101 55 -197 5 -92 8
-100 37 -100 35 0 47 19 47 72 0 26 3 48 8 49 33 3 57 11 64 22 22 34 -4 67
-54 67 -19 0 -27 10 -45 58 -41 103 -140 194 -248 225 -61 17 -162 20 -191 6z
m-46 -336 c2 -51 -1 -83 -7 -83 -6 0 -36 -21 -67 -46 -31 -25 -60 -42 -64 -37
-5 4 -17 24 -28 44 -38 69 -47 84 -52 89 -9 9 -30 49 -30 58 0 7 33 26 90 50
14 6 54 10 90 9 l65 -2 3 -82z m1582 -888 c0 -27 -27 -48 -52 -42 -44 11 -46
61 -4 77 22 8 56 -13 56 -35z m-1029 -692 c7 -53 3 -80 -18 -100 -26 -27 -50
-29 -81 -7 -18 12 -22 25 -22 65 l0 49 60 0 c33 0 60 -3 61 -7z m599 -38 c0
-73 -50 -107 -100 -67 -20 16 -35 84 -23 105 2 4 31 7 64 7 l59 0 0 -45z"/>
<path d="M831 1994 c-19 -14 -21 -25 -21 -118 0 -103 7 -126 39 -126 39 1 45
16 47 117 1 54 -2 105 -7 114 -13 25 -34 29 -58 13z"/>
<path d="M1299 1652 c-22 -15 -25 -45 -5 -61 19 -16 592 -16 612 0 19 15 18
43 -2 60 -24 19 -578 20 -605 1z"/>
<path d="M651 1487 c-56 -11 -85 -30 -111 -71 -40 -65 -32 -136 15 -136 21 0
45 29 45 55 0 37 50 78 88 72 36 -5 70 -36 77 -69 9 -41 22 -58 46 -58 28 0
48 36 39 73 -21 96 -106 154 -199 134z"/>
</g>
</svg>
